<?xml version="1.0" encoding="UTF-8" ?>
<!DOCTYPE svg PUBLIC "-//W3C//DTD SVG 1.1//EN" "http://www.w3.org/Graphics/SVG/1.1/DTD/svg11.dtd">
<svg width="612pt" height="612pt" viewBox="0 0 612 612" version="1.1" xmlns="http://www.w3.org/2000/svg">
<g id="#a6ddf1ff">
</g>
<g id="#dbefeeff">
<path fill="#dbefee" opacity="1.00" d=" M 123.65 52.66 C 128.89 40.87 145.59 36.42 156.06 43.91 C 159.40 45.84 161.31 49.38 164.38 51.63 C 166.76 51.90 169.05 50.79 171.38 50.41 C 179.25 48.57 188.69 52.45 191.81 60.19 C 192.50 61.47 192.87 63.01 193.98 64.01 C 195.51 64.84 197.33 64.66 199.00 64.93 C 208.32 65.48 217.06 73.91 216.63 83.49 C 211.79 84.30 206.88 83.81 202.00 83.82 C 168.67 83.81 135.33 83.82 102.00 83.82 C 97.80 83.86 93.59 84.14 89.42 83.58 C 88.17 76.64 90.06 69.16 94.93 63.98 C 98.14 59.73 103.61 58.34 108.60 57.49 C 112.68 56.72 116.58 58.69 120.63 58.70 C 122.24 57.09 122.60 54.63 123.65 52.66 Z" />
<path fill="#dbefee" opacity="1.00" d=" M 86.00 107.03 C 91.77 104.07 99.39 105.35 103.71 110.27 C 106.19 113.56 109.37 109.88 112.13 109.11 C 116.67 108.32 121.41 110.17 124.69 113.30 C 126.60 115.39 127.14 119.26 130.57 119.38 C 136.79 119.66 143.33 124.22 143.95 130.72 C 116.03 130.88 88.08 130.94 60.16 130.69 C 60.02 126.22 61.87 121.15 66.33 119.42 C 69.81 117.36 73.90 117.46 77.78 116.97 C 80.10 113.35 82.05 109.20 86.00 107.03 Z" />
<path fill="#dbefee" opacity="1.00" d=" M 495.49 210.75 C 496.55 205.63 500.24 201.05 505.17 199.23 C 508.98 198.39 513.21 198.44 516.74 200.27 C 519.09 201.47 520.79 203.61 523.11 204.86 C 526.91 203.58 530.63 201.33 534.83 202.24 C 539.67 203.50 542.92 207.79 545.02 212.09 C 548.79 213.15 553.07 213.06 556.18 215.83 C 559.02 217.56 560.22 220.73 560.77 223.86 C 534.84 224.08 508.90 223.81 482.97 223.96 C 481.06 223.95 479.17 223.74 477.29 223.50 C 477.61 219.25 479.50 214.37 483.82 212.79 C 487.41 210.87 491.56 211.14 495.49 210.75 Z" />
<path fill="#dbefee" opacity="1.00" d=" M 107.89 404.83 C 112.57 399.08 122.22 398.25 127.72 403.28 C 129.44 404.39 131.30 406.67 133.55 405.50 C 138.15 403.50 143.71 402.96 148.03 405.95 C 151.25 407.40 152.89 410.59 154.38 413.59 C 161.02 414.06 169.33 417.11 169.98 424.81 C 168.73 425.36 167.43 425.84 166.04 425.76 C 140.68 425.70 115.32 425.71 89.97 425.74 C 88.68 425.64 87.06 425.93 86.31 424.59 C 85.98 419.90 89.09 415.29 93.30 413.36 C 96.51 411.54 100.34 412.85 103.74 411.91 C 105.38 409.70 106.13 406.96 107.89 404.83 Z" />
<path fill="#dbefee" opacity="1.00" d=" M 238.28 460.29 C 244.95 457.22 253.09 457.97 259.37 461.65 C 262.95 463.64 265.25 467.14 268.07 469.99 C 273.44 468.14 279.41 467.09 284.91 469.05 C 290.32 470.77 294.54 475.11 296.89 480.19 C 298.26 483.32 302.04 482.76 304.80 483.31 C 313.35 484.65 321.06 492.88 319.89 501.79 C 278.91 502.03 237.93 501.83 196.95 501.89 C 195.29 501.74 192.26 502.38 192.26 499.85 C 191.19 489.37 198.46 478.32 208.84 475.82 C 214.08 474.27 219.51 475.62 224.72 476.57 C 226.39 469.44 231.57 463.22 238.28 460.29 Z" />
</g>
<g id="#fcfcfcff">
<path fill="#fcfcfc" opacity="1.00" d=" M 385.40 92.49 C 407.80 86.92 431.67 88.42 453.61 95.30 C 462.06 97.45 470.11 100.99 477.60 105.41 C 482.13 108.65 487.47 112.79 487.11 119.01 C 487.64 126.75 480.26 131.85 473.62 133.66 C 467.94 135.58 461.94 134.76 456.12 134.22 C 456.08 136.11 456.25 138.06 457.45 139.60 C 461.13 145.43 465.65 152.19 463.33 159.40 C 460.44 164.79 454.36 168.91 448.05 167.86 C 442.15 167.62 437.44 163.76 432.05 161.93 C 432.38 169.11 435.54 176.58 432.64 183.61 C 431.48 187.16 427.19 187.83 423.99 187.23 C 419.98 186.79 416.48 183.72 412.35 184.34 C 407.47 188.58 409.33 196.94 403.96 200.99 C 401.61 203.37 398.05 203.26 394.97 202.93 C 390.19 202.53 385.88 199.65 381.00 200.13 C 377.32 200.18 373.86 201.56 370.65 203.24 C 367.08 184.53 357.64 166.99 343.78 153.89 C 347.14 144.16 352.85 135.51 357.39 126.33 C 360.58 119.78 364.83 113.86 368.88 107.84 C 373.31 101.80 377.82 94.78 385.40 92.49 Z" />
<path fill="#fcfcfc" opacity="1.00" d=" M 259.83 146.40 C 274.94 142.61 291.17 142.78 305.87 148.19 C 325.64 155.03 342.23 170.48 350.49 189.71 C 347.16 192.56 342.57 192.80 338.85 194.90 C 335.36 196.78 337.90 203.50 341.88 202.22 C 345.33 201.40 348.59 199.97 351.96 198.90 C 352.50 199.11 353.58 199.53 354.12 199.75 C 358.99 217.44 357.43 236.85 349.36 253.37 C 341.73 269.79 327.83 282.88 311.48 290.47 C 307.61 287.32 307.99 281.68 305.11 277.86 C 302.65 276.29 298.10 277.64 298.24 280.98 C 299.03 285.33 300.96 289.38 302.23 293.61 C 283.17 299.50 261.79 297.25 244.29 287.72 C 228.92 279.79 216.97 266.18 209.84 250.54 C 213.77 248.87 217.92 247.71 221.74 245.79 C 225.19 244.00 223.10 237.47 219.15 238.33 C 215.02 239.22 211.22 241.16 207.26 242.60 C 207.02 241.70 206.77 240.81 206.53 239.92 C 201.47 222.06 203.72 202.42 212.04 185.89 C 219.73 170.75 232.55 157.99 248.10 151.09 C 248.74 151.04 250.02 150.94 250.66 150.90 C 252.09 154.58 253.09 158.49 255.09 161.93 C 256.87 165.21 263.46 162.78 262.29 159.03 C 261.43 155.32 259.84 151.83 258.68 148.21 C 258.97 147.76 259.54 146.85 259.83 146.40 M 296.36 184.36 C 294.96 185.38 294.36 187.11 293.57 188.59 C 288.99 198.36 284.36 208.11 279.83 217.90 C 263.72 210.88 248.03 202.86 231.92 195.83 C 228.03 194.00 224.75 200.75 228.26 202.89 C 230.51 204.43 233.09 205.40 235.54 206.57 C 248.98 212.85 262.39 219.19 275.88 225.36 C 275.30 227.24 274.55 229.06 274.09 230.98 C 273.85 234.37 278.82 236.66 281.20 234.16 C 282.20 232.64 282.83 230.92 283.54 229.25 C 286.16 229.94 288.89 232.30 291.59 230.64 C 293.06 229.10 294.12 226.33 292.57 224.49 C 290.91 223.27 289.09 222.30 287.41 221.12 C 292.26 210.68 297.31 200.32 302.03 189.82 C 304.01 186.39 299.49 183.08 296.36 184.36 Z" />
<path fill="#fcfcfc" opacity="1.00" d=" M 112.25 192.13 C 115.90 190.15 119.64 187.79 123.95 187.76 C 133.49 187.49 142.51 190.95 151.52 193.61 C 164.32 198.12 176.66 203.78 189.11 209.15 C 186.90 227.91 190.38 247.32 199.47 263.92 C 197.35 266.38 193.70 266.23 191.25 268.25 C 184.84 272.21 183.22 281.17 175.93 284.00 C 171.48 285.98 167.05 283.02 163.57 280.48 C 161.11 278.95 158.51 276.36 155.37 277.31 C 151.80 279.67 151.27 284.47 148.42 287.48 C 145.37 289.68 140.91 290.93 137.70 288.30 C 132.42 284.00 130.05 277.34 126.09 271.98 C 123.94 276.73 122.52 281.94 118.90 285.88 C 114.77 291.47 106.25 293.79 100.32 289.72 C 96.60 287.91 95.06 283.85 93.90 280.17 C 92.64 275.98 93.24 271.41 91.55 267.34 C 91.18 267.22 90.43 266.96 90.06 266.83 C 87.80 268.26 86.23 270.51 84.17 272.19 C 78.76 277.02 71.30 279.92 64.01 278.96 C 58.92 277.89 53.83 273.64 53.97 268.05 C 53.04 258.69 57.92 250.19 62.36 242.35 C 69.96 230.58 77.82 218.73 88.34 209.32 C 95.70 202.81 103.52 196.71 112.25 192.13 Z" />
</g>
<g id="#312e67ff">
<path fill="#312e67" opacity="1.00" d=" M 212.88 157.88 C 229.97 139.48 254.82 128.34 280.00 128.54 C 303.50 128.14 326.84 137.69 343.78 153.89 C 357.64 166.99 367.08 184.53 370.65 203.24 C 373.73 219.60 372.26 236.80 366.40 252.38 C 358.74 273.27 343.12 291.17 323.39 301.46 C 307.75 309.87 289.59 313.59 271.91 311.85 C 241.80 309.25 213.52 290.72 199.47 263.92 C 190.38 247.32 186.90 227.91 189.11 209.15 C 191.44 190.13 199.95 172.00 212.88 157.88 M 248.10 151.09 C 232.55 157.99 219.73 170.75 212.04 185.89 C 203.72 202.42 201.47 222.06 206.53 239.92 C 206.25 241.63 205.43 243.10 204.13 244.24 C 202.40 245.78 203.04 248.37 203.74 250.26 C 205.60 251.25 207.88 251.25 209.84 250.54 C 216.97 266.18 228.92 279.79 244.29 287.72 C 261.79 297.25 283.17 299.50 302.23 293.61 C 302.98 295.68 304.28 298.35 306.95 297.76 C 311.06 298.20 311.34 293.41 311.48 290.47 C 327.83 282.88 341.73 269.79 349.36 253.37 C 357.43 236.85 358.99 217.44 354.12 199.75 C 354.17 199.26 354.28 198.28 354.33 197.79 C 356.96 197.40 359.02 194.96 357.90 192.27 C 356.33 190.09 352.97 188.88 350.49 189.71 C 342.23 170.48 325.64 155.03 305.87 148.19 C 291.17 142.78 274.94 142.61 259.83 146.40 C 257.64 144.75 255.29 142.03 252.24 143.12 C 248.04 143.76 251.45 149.37 248.10 151.09 Z" />
<path fill="#312e67" opacity="1.00" d=" M 457.43 287.50 C 455.16 285.95 456.32 281.65 459.17 281.55 C 464.70 281.09 470.32 279.97 475.86 280.89 C 478.69 281.58 477.74 284.80 476.76 286.63 C 472.88 286.63 468.97 286.38 465.13 287.01 C 462.58 287.35 459.99 288.02 457.43 287.50 Z" />
<path fill="#312e67" opacity="1.00" d=" M 488.43 288.55 C 485.83 287.11 488.05 282.58 490.82 283.45 C 496.24 285.13 501.61 287.48 506.18 290.89 C 507.88 292.10 507.59 294.09 506.79 295.74 C 502.66 296.60 499.51 293.53 496.04 291.91 C 493.57 290.63 490.85 289.92 488.43 288.55 Z" />
<path fill="#312e67" opacity="1.00" d=" M 429.69 295.69 C 433.95 292.07 438.67 288.72 444.02 286.98 C 446.43 286.47 447.21 289.05 447.77 290.83 C 444.37 293.58 440.13 294.99 436.75 297.75 C 434.75 299.06 432.85 301.44 430.20 300.79 C 427.51 300.63 427.85 296.77 429.69 295.69 Z" />
<path fill="#312e67" opacity="1.00" d=" M 515.62 300.57 C 517.25 299.60 518.68 301.18 519.74 302.24 C 523.23 305.89 526.08 310.16 528.30 314.69 C 529.17 316.04 528.13 317.43 527.74 318.75 C 526.00 318.66 523.75 319.08 522.93 317.08 C 520.51 312.59 517.32 308.64 514.17 304.65 C 512.70 303.18 514.36 301.42 515.62 300.57 Z" />
<path fill="#312e67" opacity="1.00" d=" M 418.30 308.32 C 419.24 306.71 421.27 307.44 422.78 307.22 C 423.43 308.76 424.19 310.49 422.96 311.98 C 420.01 316.64 417.86 321.71 415.66 326.75 C 414.21 326.53 412.11 327.26 411.32 325.59 C 410.58 322.94 411.94 320.36 412.96 318.00 C 414.57 314.69 416.04 311.25 418.30 308.32 Z" />
<path fill="#312e67" opacity="1.00" d=" M 317.40 326.33 C 318.85 325.97 320.55 326.26 321.26 327.75 C 322.71 330.62 323.92 333.67 324.56 336.83 C 324.17 339.01 321.21 340.05 319.63 338.40 C 317.70 335.96 316.76 332.87 316.04 329.88 C 315.69 328.61 316.18 326.96 317.40 326.33 Z" />
<path fill="#312e67" opacity="1.00" d=" M 528.33 329.42 C 529.45 327.08 533.48 327.31 534.06 329.96 C 535.47 335.42 535.77 341.17 535.64 346.79 C 535.62 349.44 532.20 349.28 530.43 348.61 C 529.61 345.26 529.72 341.80 529.47 338.40 C 529.25 335.38 528.11 332.46 528.33 329.42 Z" />
<path fill="#312e67" opacity="1.00" d=" M 407.77 336.78 C 408.94 336.07 410.40 336.38 411.72 336.20 C 413.51 339.23 412.23 342.70 411.96 345.94 C 411.35 349.84 412.11 353.92 410.72 357.69 C 409.09 357.57 407.38 357.81 405.85 357.19 C 404.91 353.78 405.49 350.15 405.77 346.68 C 406.33 343.37 406.30 339.86 407.77 336.78 Z" />
<path fill="#312e67" opacity="1.00" d=" M 326.40 348.25 C 328.09 346.80 330.31 348.20 331.13 349.89 C 333.33 353.69 335.08 357.75 337.63 361.36 C 338.72 362.79 339.62 365.63 337.56 366.64 C 336.13 367.01 334.12 367.24 333.26 365.73 C 330.52 361.69 328.21 357.35 326.00 353.00 C 325.33 351.59 324.51 349.09 326.40 348.25 Z" />
<path fill="#312e67" opacity="1.00" d=" M 529.42 359.34 C 531.32 358.50 534.32 359.42 533.73 361.96 C 532.79 367.36 530.89 372.64 528.59 377.62 C 527.87 379.58 525.53 380.21 523.78 379.26 C 522.38 376.77 523.69 374.01 524.63 371.62 C 525.87 368.65 526.65 365.53 527.55 362.45 C 528.08 361.41 528.01 359.57 529.42 359.34 Z" />
<path fill="#312e67" opacity="1.00" d=" M 406.27 370.18 C 406.39 367.41 409.67 366.87 411.61 368.24 C 412.48 374.97 414.45 381.62 414.47 388.42 C 412.64 388.51 409.56 389.59 409.01 387.02 C 407.53 381.55 406.42 375.85 406.27 370.18 Z" />
<path fill="#312e67" opacity="1.00" d=" M 343.43 374.39 C 346.06 373.61 347.71 376.11 349.21 377.80 C 351.57 380.75 353.93 383.70 356.56 386.41 C 357.98 387.59 358.09 389.73 357.32 391.31 C 355.72 392.12 353.48 392.22 352.30 390.66 C 349.02 387.27 346.03 383.60 343.16 379.86 C 341.85 378.37 341.44 375.49 343.43 374.39 Z" />
<path fill="#312e67" opacity="1.00" d=" M 516.56 387.49 C 517.58 387.42 518.62 387.35 519.66 387.29 C 520.46 388.81 521.55 390.72 520.29 392.34 C 517.40 396.68 514.01 400.69 510.47 404.50 C 509.13 406.22 506.96 405.40 505.32 404.71 C 505.46 402.97 504.96 400.82 506.62 399.65 C 510.40 395.99 513.40 391.66 516.56 387.49 Z" />
<path fill="#312e67" opacity="1.00" d=" M 365.35 397.29 C 367.39 396.86 368.91 398.52 370.40 399.61 C 373.67 402.38 377.31 404.68 380.60 407.42 C 382.86 408.80 381.38 412.69 378.88 412.66 C 377.64 412.74 376.67 411.83 375.69 411.24 C 371.43 408.19 367.30 404.96 363.31 401.57 C 363.23 399.89 363.54 397.95 365.35 397.29 Z" />
<path fill="#312e67" opacity="1.00" d=" M 413.32 398.35 C 414.76 398.35 416.20 398.37 417.65 398.38 C 419.85 402.67 420.97 407.41 423.12 411.74 C 424.30 413.90 424.40 416.33 423.72 418.68 C 422.28 418.65 420.85 418.63 419.42 418.60 C 417.01 412.01 412.56 405.64 413.32 398.35 Z" />
<path fill="#312e67" opacity="1.00" d=" M 494.57 410.62 C 496.82 409.15 500.08 411.16 499.18 413.88 C 497.61 416.43 494.81 417.80 492.37 419.36 C 489.57 420.94 486.90 422.86 483.82 423.85 C 482.37 424.15 480.06 423.69 480.24 421.78 C 479.41 418.79 482.78 417.96 484.73 416.78 C 488.26 415.13 491.25 412.61 494.57 410.62 Z" />
<path fill="#312e67" opacity="1.00" d=" M 390.42 415.37 C 391.50 414.74 392.62 414.70 393.76 415.26 C 397.08 416.55 400.19 418.31 403.55 419.52 C 405.60 420.45 408.17 420.97 409.37 423.09 C 409.86 424.63 408.91 425.99 407.66 426.79 C 404.77 426.99 402.18 425.47 399.59 424.44 C 396.44 422.97 393.02 421.90 390.24 419.75 C 388.93 418.77 388.81 416.14 390.42 415.37 Z" />
<path fill="#312e67" opacity="1.00" d=" M 456.78 426.43 C 461.48 425.90 465.95 423.70 470.76 424.30 C 471.74 426.08 471.93 428.73 469.61 429.55 C 463.98 431.21 458.12 432.81 452.21 432.68 C 449.74 432.80 449.83 429.27 450.74 427.78 C 452.58 426.78 454.75 426.77 456.78 426.43 Z" />
<path fill="#312e67" opacity="1.00" d=" M 419.62 425.48 C 425.74 425.44 431.68 427.46 437.84 427.45 C 440.14 427.24 440.02 430.11 439.89 431.69 C 438.73 433.79 435.97 433.07 434.01 433.46 C 435.33 437.73 440.50 441.03 438.82 445.87 C 437.40 446.00 435.63 446.93 434.46 445.66 C 431.15 441.74 429.18 436.92 426.29 432.72 C 424.45 431.20 421.55 431.91 419.66 430.35 C 418.24 428.96 419.33 427.08 419.62 425.48 Z" />
<path fill="#312e67" opacity="1.00" d=" M 444.43 453.36 C 447.11 452.62 448.41 455.44 449.88 457.11 C 452.37 460.63 455.56 463.61 457.92 467.23 C 459.11 469.11 457.33 471.81 455.17 471.59 C 452.74 470.64 451.25 468.34 449.62 466.44 C 447.45 463.52 444.91 460.88 443.02 457.77 C 441.92 456.24 443.07 454.26 444.43 453.36 Z" />
<path fill="#312e67" opacity="1.00" d=" M 464.45 477.40 C 467.96 476.28 469.90 479.92 472.12 481.88 C 474.68 484.74 478.12 486.82 480.16 490.12 C 481.23 492.78 477.79 494.88 475.67 493.28 C 471.69 490.35 468.48 486.51 464.87 483.16 C 463.10 481.92 462.36 478.62 464.45 477.40 Z" />
<path fill="#312e67" opacity="1.00" d=" M 488.35 498.23 C 491.28 497.47 493.26 500.14 495.41 501.59 C 498.57 504.23 502.74 505.70 505.22 509.09 C 506.12 511.79 502.90 513.84 500.68 512.30 C 496.20 509.55 491.85 506.50 487.79 503.16 C 486.01 501.93 486.45 499.06 488.35 498.23 Z" />
<path fill="#312e67" opacity="1.00" d=" M 514.41 515.39 C 518.94 515.12 522.46 518.97 526.53 520.52 C 528.87 522.03 533.48 522.87 532.62 526.57 C 531.80 528.79 528.98 528.78 527.23 527.75 C 523.05 525.68 518.96 523.43 514.92 521.11 C 512.62 520.26 512.39 516.60 514.41 515.39 Z" />
<path fill="#312e67" opacity="1.00" d=" M 543.30 529.34 C 547.07 529.78 550.37 531.94 553.79 533.44 C 553.73 534.80 553.68 536.17 553.63 537.54 C 549.91 539.20 546.17 536.65 542.89 535.08 C 540.29 533.96 540.99 530.36 543.30 529.34 Z" />
</g>
<g id="#3b79b1ff">
<path fill="#3b79b1" opacity="1.00" d=" M 248.10 151.09 C 251.45 149.37 248.04 143.76 252.24 143.12 C 255.29 142.03 257.64 144.75 259.83 146.40 C 259.54 146.85 258.97 147.76 258.68 148.21 C 259.84 151.83 261.43 155.32 262.29 159.03 C 263.46 162.78 256.87 165.21 255.09 161.93 C 253.09 158.49 252.09 154.58 250.66 150.90 C 250.02 150.94 248.74 151.04 248.10 151.09 Z" />
<path fill="#3b79b1" opacity="1.00" d=" M 350.49 189.71 C 352.97 188.88 356.33 190.09 357.90 192.27 C 359.02 194.96 356.96 197.40 354.33 197.79 C 354.28 198.28 354.17 199.26 354.12 199.75 C 353.58 199.53 352.50 199.11 351.96 198.90 C 348.59 199.97 345.33 201.40 341.88 202.22 C 337.90 203.50 335.36 196.78 338.85 194.90 C 342.57 192.80 347.16 192.56 350.49 189.71 Z" />
<path fill="#3b79b1" opacity="1.00" d=" M 207.26 242.60 C 211.22 241.16 215.02 239.22 219.15 238.33 C 223.10 237.47 225.19 244.00 221.74 245.79 C 217.92 247.71 213.77 248.87 209.84 250.54 C 207.88 251.25 205.60 251.25 203.74 250.26 C 203.04 248.37 202.40 245.78 204.13 244.24 C 205.43 243.10 206.25 241.63 206.53 239.92 C 206.77 240.81 207.02 241.70 207.26 242.60 Z" />
<path fill="#3b79b1" opacity="1.00" d=" M 298.24 280.98 C 298.10 277.64 302.65 276.29 305.11 277.86 C 307.99 281.68 307.61 287.32 311.48 290.47 C 311.34 293.41 311.06 298.20 306.95 297.76 C 304.28 298.35 302.98 295.68 302.23 293.61 C 300.96 289.38 299.03 285.33 298.24 280.98 Z" />
</g>
<g id="#404040ff">
<path fill="#404040" opacity="1.00" d=" M 296.36 184.36 C 299.49 183.08 304.01 186.39 302.03 189.82 C 297.31 200.32 292.26 210.68 287.41 221.12 C 289.09 222.30 290.91 223.27 292.57 224.49 C 294.12 226.33 293.06 229.10 291.59 230.64 C 288.89 232.30 286.16 229.94 283.54 229.25 C 282.83 230.92 282.20 232.64 281.20 234.16 C 278.82 236.66 273.85 234.37 274.09 230.98 C 274.55 229.06 275.30 227.24 275.88 225.36 C 262.39 219.19 248.98 212.85 235.54 206.57 C 233.09 205.40 230.51 204.43 228.26 202.89 C 224.75 200.75 228.03 194.00 231.92 195.83 C 248.03 202.86 263.72 210.88 279.83 217.90 C 284.36 208.11 288.99 198.36 293.57 188.59 C 294.36 187.11 294.96 185.38 296.36 184.36 Z" />
</g>
</svg>
